<?xml version="1.0" standalone="no"?><!DOCTYPE svg PUBLIC "-//W3C//DTD SVG 1.1//EN" "http://www.w3.org/Graphics/SVG/1.1/DTD/svg11.dtd"><svg t="1735378827392" class="icon" viewBox="0 0 1203 1024" version="1.1" xmlns="http://www.w3.org/2000/svg" p-id="24186" xmlns:xlink="http://www.w3.org/1999/xlink" width="234.9609375" height="200"><path d="M695.870884 749.863151l-189.663599-0.486317c-142.782648-0.457138-285.497213-0.58358-428.153419-0.389054-49.118009 0.097263-76.546284-15.464878-77.129864-66.333628-1.429772-117.231557-1.19634-234.472841 0.680844-351.704398 1.264424-80.242292-2.237058-181.979792 1.361687-273.018321 1.458951-39.488934 26.261114-57.579924 63.707517-57.579923 360.526187-0.389054 721.013469-0.457138 1081.471572-0.194527 40.947885 0.097263 53.786652 36.084716 53.592125 73.336592-0.846191 196.151068-0.223706 392.26323 1.848004 588.346213 0.486317 44.935684-9.531812 86.856202-60.886878 86.856202a73312.567854 73312.567854 0 0 0-446.827989 1.167161z m-479.411222-709.147337l-161.359955-1.653477a16.048458 16.048458 0 0 0-16.242985 16.340248l2.528848 161.165429c-7.975598 33.332162-8.529999 70.584038-1.653477 111.755628l-0.291791 257.650706a4.863169 4.863169 0 0 0 4.86317 4.863169l1113.568489-0.097263a4.911801 4.911801 0 0 0 4.960432-4.765906c3.95862-179.285597 3.472303-358.639278-1.45895-538.061043a9.045495 9.045495 0 0 0-9.045495-8.753705l-877.121202 0.194527-58.747084 1.361687z" fill="#4B6182" p-id="24187"></path><path d="M506.207285 749.376834l189.663599 0.486317v115.451637c-63.094758 4.5422-126.179789 4.668642-189.274546 0.389054l-0.389053-116.327008z" fill="#2E3D50" p-id="24188"></path><path d="M506.596338 865.703842c63.094758 4.279589 126.179789 4.153147 189.274546-0.389054 51.617678 2.985986 103.293714 3.987799 155.037835 3.015165 70.321427-1.361687 120.12028 33.069551 114.673531 110.199415-1.848004 24.99669-15.853932 44.741157-41.725992 45.032947-69.514141 0.58358-279.213998 0.58358-629.099571 0-96.777068-0.097263-59.525191-118.855856-6.03033-144.53339 48.339902-23.245949 159.511951-10.212655 217.869981-13.325083z" fill="#4B6182" p-id="24189"></path><path d="M275.206746 39.354127l-227.012739 237.419922c-2.207879 2.334321-3.579293 5.271675-3.890535 8.364651l-4.571379 43.184942c-6.876521-41.171591-6.32212-78.423467 1.653477-111.755628a998.680979 998.680979 0 0 0 175.074092-175.8522l58.747084-1.361687z" fill="#C8D9E5" p-id="24190"></path><path d="M216.459662 40.715814a998.680979 998.680979 0 0 1-175.074092 175.8522l-2.528848-161.165429a16.048458 16.048458 0 0 1 16.242985-16.340248l161.359955 1.653477zM275.206746 39.354127l877.121202-0.194527a9.045495 9.045495 0 0 1 9.045495 8.753705c4.931254 179.421765 5.417571 358.775446 1.45895 538.061043a4.911801 4.911801 0 0 1-4.960432 4.765906l-1113.568489 0.097263a4.863169 4.863169 0 0 1-4.86317-4.863169l0.291791-257.650706 4.571379-43.184942c0.311243-3.092976 1.682657-6.03033 3.890535-8.364651l227.012739-237.419922z m199.487202 334.391516a61.567722 61.567722 0 1 0-123.135445 0 61.567722 61.567722 0 0 0 123.135445 0z m188.496439 0.194527a61.664986 61.664986 0 1 0-123.329971 0 61.664986 61.664986 0 0 0 123.329971 0z m188.399176-0.29179a61.470459 61.470459 0 1 0-122.940918 0 61.470459 61.470459 0 0 0 122.940918 0z" fill="#E2F0FA" p-id="24191"></path><path d="M413.126226 373.745643m-61.567723 0a61.567722 61.567722 0 1 0 123.135445 0 61.567722 61.567722 0 1 0-123.135445 0Z" fill="#C8D9E5" p-id="24192"></path><path d="M601.525401 373.94017m-61.664985 0a61.664986 61.664986 0 1 0 123.329971 0 61.664986 61.664986 0 1 0-123.329971 0Z" fill="#C8D9E5" p-id="24193"></path><path d="M790.119104 373.64838m-61.470459 0a61.470459 61.470459 0 1 0 122.940918 0 61.470459 61.470459 0 1 0-122.940918 0Z" fill="#C8D9E5" p-id="24194"></path></svg>