<?xml version="1.0" standalone="no"?><!DOCTYPE svg PUBLIC "-//W3C//DTD SVG 1.1//EN" "http://www.w3.org/Graphics/SVG/1.1/DTD/svg11.dtd"><svg t="1735378747511" class="icon" viewBox="0 0 1261 1024" version="1.1" xmlns="http://www.w3.org/2000/svg" p-id="23870" xmlns:xlink="http://www.w3.org/1999/xlink" width="246.2890625" height="200"><path d="M735.110097 314.901098l-27.712606-27.712606a39493.990895 39493.990895 0 0 0 214.235825-213.213219c33.265353-33.408517 58.114663-53.962885 74.547932-61.663104 64.73092-30.37138 141.221802-2.556513 176.603948 61.560843 54.607127 98.885939-15.543602 165.457549-91.829963 237.448967-16.975249 16.024226-27.272885 29.829399-30.882682 41.415518-17.486552 56.550077 35.279885 110.748162 91.42092 91.625441 30.882682-10.430575 62.685709-46.528544 87.023717-71.889158 2.515609-2.648548 5.542521-4.346073 8.589885-4.806245 14.040372-2.454253 22.221215 3.752962 24.542529 18.611418a11.759962 11.759962 0 0 1-2.761034 9.101188c-53.789043 64.424138-124.553334 127.62115-202.475864 71.889157-42.233602-30.166858-59.413372-78.331571-43.76751-127.62115 22.599579-71.173334 119.338047-106.248698 137.540423-177.626553 17.895594-70.252989-55.322951-136.926859-123.121687-118.315441-16.975249 4.703985-35.249207 16.801406-54.811648 36.30249a32086.963639 32086.963639 0 0 1-237.142185 234.892454z" fill="#4B6182" p-id="23871"></path><path d="M648.597682 253.135733l-204.521074 207.895672-159.833219-165.968851c107.987127-67.082912 246.959197-98.272376 364.354293-41.926821z" fill="#6580A6" p-id="23872"></path><path d="M648.597682 253.135733l58.799809 34.052759 27.712606 27.712606 37.631877 58.697548c-75.059234 65.651265-144.69866 133.859043-208.918277 204.623335-35.177625 34.973104-95.102299 106.350959-138.97207 121.485518-59.208851 20.452107-121.280997-35.893449-103.385403-97.658813 11.862222-41.313257 90.296054-107.271303 122.610384-141.017281l204.521074-207.895672z m-3.722283 110.359572a32.41659 32.41659 0 0 0-45.853625 0l-140.710499 140.710499a32.41659 32.41659 0 0 0 0 45.853625l14.030146 14.01992a32.41659 32.41659 0 0 0 45.843399 0l140.710499-140.710499a32.41659 32.41659 0 0 0 0-45.843399l-14.01992-14.030146z" fill="#2E3D50" p-id="23873"></path><path d="M284.243389 295.062554l159.833219 165.968851c-32.31433 33.745977-110.748162 99.704024-122.610384 141.017281-17.895594 61.765364 44.176552 118.11092 103.385403 97.658813 43.86977-15.134559 103.794445-86.512414 138.97207-121.485518a1674.42426 1674.42426 0 0 0 166.582415 159.424177c-88.864407 150.118468-253.29935 277.126055-431.028164 285.920462-128.541495 6.237893-243.78912-54.913908-283.568469-180.285327-67.798736-213.826783 93.875173-444.015252 268.43391-548.218739z m-100.522108 428.328485a15.339081 15.339081 0 0 0-21.679234 0l-5.358452 5.348226a15.339081 15.339081 0 0 0 0 21.68946l117.425775 117.436001a15.339081 15.339081 0 0 0 21.68946 0l5.358452-5.348226a15.339081 15.339081 0 0 0 0-21.699686L183.721281 723.391039z" fill="#4B6182" p-id="23874"></path><path d="M772.741974 373.598646c45.812721 129.12438 31.700766 250.466733-42.335862 364.047512a1674.42426 1674.42426 0 0 1-166.582415-159.424177c64.219617-70.764292 133.859043-138.97207 208.918277-204.623335z" fill="#6580A6" p-id="23875"></path><path d="M435.393671 527.135228m22.92199-22.92199l140.713546-140.713546q22.921991-22.921991 45.843982 0l14.027969 14.027969q22.921991 22.921991 0 45.843981l-140.713546 140.713546q-22.921991 22.921991-45.843981 0l-14.02797-14.027969q-22.921991-22.921991 0-45.843981Z" fill="#6580A6" p-id="23876"></path><path d="M145.83726 739.588315m10.846368-10.846368l5.350875-5.350874q10.846368-10.846368 21.692736 0l117.430009 117.430009q10.846368 10.846368 0 21.692736l-5.350874 5.350875q-10.846368 10.846368-21.692736 0l-117.43001-117.43001q-10.846368-10.846368 0-21.692736Z" fill="#2E3D50" p-id="23877"></path></svg>